# xmcd
#
# Track frame offsets: 
#        179
#        12623
#        24230
#        34403
#        49117
#        62826
#        73953
#        86687
#        100263
#        110407
#        123262
#        134663
#        147504
#        159709
#
# Disc length: 2290 seconds
#
# Revision: 0
# Processed by: cddbd v1.5.2PL0 Copyright (c) Steve Scherf et al.
# Submitted via: ExactAudioCopy v0.95a4
#
DISCID=d108f00e
DTITLE=Johnny Cash - The Very Best of Johnny Cash and June Carter Cash
DYEAR=2012
DGENRE=
TTITLE0=Jackson
TTITLE1=Long-Legged Guitar Pickin' Man
TTITLE2=Ole Slewfoot
TTITLE3=I Got A Woman
TTITLE4=It Ain't Me Babe
TTITLE5=Pack Up Your Sorrows
TTITLE6=Old Time Feeling
TTITLE7=If I Were A Carpenter
TTITLE8=The Loving Gift
TTITLE9=I Got A Boy (And His Name Is John)
TTITLE10=Life Has Its Little Ups And Downs
TTITLE11=No Need To Worry
TTITLE12=You And Me
TTITLE13=Far Side Banks Of Jordan
EXTD=
EXTT0=
EXTT1=
EXTT2=
EXTT3=
EXTT4=
EXTT5=
EXTT6=
EXTT7=
EXTT8=
EXTT9=
EXTT10=
EXTT11=
EXTT12=
EXTT13=
PLAYORDER=
